# xmcd
#
# Track frame offsets: 
#        150
#        12508
#        24979
#        36409
#        45960
#        57907
#        70743
#        79604
#        90549
#        104652
#        114707
#        124602
#        134572
#        145808
#        156396
#        163794
#        173100
#        184084
#        193171
#        203226
#        212645
#        222150
#        228536
#        240029
#        246902
#        255247
#        263567
#        270965
#
# Disc length: 3718 seconds
#
# Revision: 1
# Processed by: cddbd v1.5.2PL0 Copyright (c) Steve Scherf et al.
# Submitted via: ExactAudioCopyFreeDBPlugin 1.0
#
DISCID=860e841c
DTITLE=Formosa Aboriginal Song and Dance Troupe - Holding Ina's Hand
DYEAR=2005
DGENRE=New Age
TTITLE0=Song of Head-hunting
TTITLE1=Ancestor Worship-1
TTITLE2=Ancestor Worship-2
TTITLE3=Ilisin Ritual Song 1
TTITLE4=Ilisin Ritual Song-2
TTITLE5=Ilisin Ritual Song-3
TTITLE6=Ilisin Ritual Song-4
TTITLE7=Ilisin Ritual Song-5
TTITLE8=Ilisin Ritual Song-6
TTITLE9=Ilisin Ritual Song-7
TTITLE10=Ilisin Ritual Song-8
TTITLE11=Ilisin Ritual Song-9
TTITLE12=Ilisin Ritual Song-10
TTITLE13=Ilisin Ritual Song-11
TTITLE14=Ilisin Ritual Song-12
TTITLE15=Ilisin Ritual Song-13
TTITLE16=Ilisin Ritual Song-14
TTITLE17=Ilisin Ritual Song-15
TTITLE18=Ilisin Ritual Song-16
TTITLE19=Ilisin Ritual Song-17
TTITLE20=Ilisin Ritual Song-18
TTITLE21=Ilisin Ritual Song-19
TTITLE22=Ilisin Ritual Song-20
TTITLE23=Ilisin Ritual Song-21
TTITLE24=Ilisin Ritual Song-22
TTITLE25=Ilisin Ritual Song-23
TTITLE26=Ilisin Ritual Song-24
TTITLE27=Ilisin Ritual Song-25
EXTD=YEAR: 2005
EXTT0=
EXTT1=
EXTT2=
EXTT3=
EXTT4=
EXTT5=
EXTT6=
EXTT7=
EXTT8=
EXTT9=
EXTT10=
EXTT11=
EXTT12=
EXTT13=
EXTT14=
EXTT15=
EXTT16=
EXTT17=
EXTT18=
EXTT19=
EXTT20=
EXTT21=
EXTT22=
EXTT23=
EXTT24=
EXTT25=
EXTT26=
EXTT27=
PLAYORDER=
